<svg width="16" height="16" viewBox="0 0 16 16" fill="none" xmlns="http://www.w3.org/2000/svg">
    <path
        d="M15.1374 9.80794L12.4714 12.474C12.3414 12.604 12.1707 12.6693 12 12.6693C11.8293 12.6693 11.6586 12.604 11.5286 12.474C11.268 12.2133 11.268 11.7919 11.5286 11.5312L13.0573 10.0026H4.66667C3.196 10.0026 2 8.8066 2 7.33594V4.0026C2 3.6346 2.298 3.33594 2.66667 3.33594C3.03533 3.33594 3.33333 3.6346 3.33333 4.0026V7.33594C3.33333 8.07127 3.93133 8.66927 4.66667 8.66927H13.0573L11.5286 7.14062C11.268 6.87996 11.268 6.45858 11.5286 6.19792C11.7893 5.93725 12.2107 5.93725 12.4714 6.19792L15.1374 8.86393C15.1994 8.92593 15.2481 8.99922 15.2821 9.08122C15.3494 9.24388 15.3494 9.42799 15.2821 9.59066C15.2481 9.67266 15.1994 9.74594 15.1374 9.80794Z"
        fill="#818181" />
</svg>