<svg width="20" height="20" viewBox="0 0 20 20" fill="none" xmlns="http://www.w3.org/2000/svg">
    <path
        d="M17.255 10.5928L13.9225 13.9254C13.76 14.0879 13.5467 14.1695 13.3333 14.1695C13.12 14.1695 12.9066 14.0879 12.7441 13.9254C12.4183 13.5995 12.4183 13.0728 12.7441 12.747L14.6549 10.8362H3.33333C2.8725 10.8362 2.5 10.4628 2.5 10.0028C2.5 9.54284 2.8725 9.16951 3.33333 9.16951H14.6549L12.7441 7.2587C12.4183 6.93286 12.4183 6.40615 12.7441 6.08031C13.07 5.75448 13.5967 5.75448 13.9225 6.08031L17.255 9.41283C17.3325 9.49033 17.3934 9.58194 17.4359 9.68444C17.5201 9.88777 17.5201 10.1179 17.4359 10.3212C17.3934 10.4237 17.3325 10.5153 17.255 10.5928Z"
        fill="#25314C" />
</svg>