<svg width="28" height="28" viewBox="0 0 28 28" fill="none" xmlns="http://www.w3.org/2000/svg">
    <path
        d="M14.2314 13.7679L12.5864 15.4129C11.6764 16.3229 11.6764 17.8046 12.5864 18.7146C13.4964 19.6246 14.9781 19.6246 15.8881 18.7146L18.4781 16.1246C20.2981 14.3046 20.2981 11.3529 18.4781 9.52125C16.6581 7.70125 13.7064 7.70125 11.8747 9.52125L9.05141 12.3446C7.48807 13.9079 7.48807 16.4396 9.05141 18.0029"
        stroke="#202046" stroke-width="1.75" stroke-linecap="round" stroke-linejoin="round" />
    <path
        d="M13.9987 25.6693C20.442 25.6693 25.6654 20.4459 25.6654 14.0026C25.6654 7.55928 20.442 2.33594 13.9987 2.33594C7.55538 2.33594 2.33203 7.55928 2.33203 14.0026C2.33203 20.4459 7.55538 25.6693 13.9987 25.6693Z"
        stroke="#202046" stroke-width="1.75" stroke-linecap="round" stroke-linejoin="round" />
</svg>