<svg width="24" height="24" viewBox="0 0 24 24" fill="none" xmlns="http://www.w3.org/2000/svg">
    <path
        d="M20.1912 14.0647L19.0612 12.1847C18.8112 11.7747 18.5912 10.9847 18.5912 10.5047V8.63469C18.5912 5.00469 15.6412 2.05469 12.0212 2.05469C8.39118 2.06469 5.44118 5.00469 5.44118 8.63469V10.4947C5.44118 10.9747 5.22118 11.7647 4.98118 12.1747L3.85118 14.0547C3.42118 14.7847 3.32118 15.6147 3.59118 16.3347C3.86118 17.0647 4.47118 17.6447 5.27118 17.9047C6.35118 18.2647 7.44118 18.5247 8.55118 18.7147C8.66118 18.7347 8.77118 18.7447 8.88118 18.7647C9.02118 18.7847 9.17118 18.8047 9.32118 18.8247C9.58118 18.8647 9.84118 18.8947 10.1112 18.9147C10.7412 18.9747 11.3812 19.0047 12.0212 19.0047C12.6512 19.0047 13.2812 18.9747 13.9012 18.9147C14.1312 18.8947 14.3612 18.8747 14.5812 18.8447C14.7612 18.8247 14.9412 18.8047 15.1212 18.7747C15.2312 18.7647 15.3412 18.7447 15.4512 18.7247C16.5712 18.5447 17.6812 18.2647 18.7612 17.9047C19.5312 17.6447 20.1212 17.0647 20.4012 16.3247C20.6812 15.5747 20.6012 14.7547 20.1912 14.0647ZM12.7512 10.0047C12.7512 10.4247 12.4112 10.7647 11.9912 10.7647C11.5712 10.7647 11.2312 10.4247 11.2312 10.0047V6.90469C11.2312 6.48469 11.5712 6.14469 11.9912 6.14469C12.4112 6.14469 12.7512 6.48469 12.7512 6.90469V10.0047Z"
        fill="#131315" />
    <path
        d="M14.8297 20.01C14.4097 21.17 13.2997 22 11.9997 22C11.2097 22 10.4297 21.68 9.87969 21.11C9.55969 20.81 9.31969 20.41 9.17969 20C9.30969 20.02 9.43969 20.03 9.57969 20.05C9.80969 20.08 10.0497 20.11 10.2897 20.13C10.8597 20.18 11.4397 20.21 12.0197 20.21C12.5897 20.21 13.1597 20.18 13.7197 20.13C13.9297 20.11 14.1397 20.1 14.3397 20.07C14.4997 20.05 14.6597 20.03 14.8297 20.01Z"
        fill="#131315" />
</svg>