<svg width="20" height="20" viewBox="0 0 20 20" fill="none" xmlns="http://www.w3.org/2000/svg">
    <path
        d="M6.67057 1.67188C6.21032 1.67188 5.83724 2.04521 5.83724 2.50521C3.99632 2.50521 2.50382 3.99771 2.50391 5.83854V6.72355L17.5039 6.67188V5.83854C17.5039 3.99771 16.0115 2.50521 14.1706 2.50521C14.1706 2.04521 13.7975 1.67188 13.3372 1.67188C12.877 1.67188 12.5039 2.04521 12.5039 2.50521H7.5039C7.5039 2.04521 7.13082 1.67188 6.67057 1.67188ZM2.50391 8.33854V14.1719C2.50391 16.0127 3.99632 17.5052 5.83724 17.5052H14.1706C16.0115 17.5052 17.504 16.0127 17.5039 14.1719V8.33854H2.50391ZM6.67057 10.0052C7.13082 10.0052 7.5039 10.3785 7.5039 10.8385C7.5039 11.2985 7.13082 11.6719 6.67057 11.6719C6.21032 11.6719 5.83724 11.2985 5.83724 10.8385C5.83724 10.3785 6.21032 10.0052 6.67057 10.0052ZM10.0039 10.0052C10.4642 10.0052 10.8372 10.3785 10.8372 10.8385C10.8372 11.2985 10.4642 11.6719 10.0039 11.6719C9.54365 11.6719 9.17057 11.2985 9.17057 10.8385C9.17057 10.3785 9.54365 10.0052 10.0039 10.0052ZM13.3372 10.0052C13.7975 10.0052 14.1706 10.3785 14.1706 10.8385C14.1706 11.2985 13.7975 11.6719 13.3372 11.6719C12.877 11.6719 12.5039 11.2985 12.5039 10.8385C12.5039 10.3785 12.877 10.0052 13.3372 10.0052ZM6.67057 12.5052C7.13082 12.5052 7.5039 12.8785 7.5039 13.3385C7.5039 13.7985 7.13082 14.1719 6.67057 14.1719C6.21032 14.1719 5.83724 13.7985 5.83724 13.3385C5.83724 12.8785 6.21032 12.5052 6.67057 12.5052ZM10.0039 12.5052C10.4642 12.5052 10.8372 12.8785 10.8372 13.3385C10.8372 13.7985 10.4642 14.1719 10.0039 14.1719C9.54365 14.1719 9.17057 13.7985 9.17057 13.3385C9.17057 12.8785 9.54365 12.5052 10.0039 12.5052ZM13.3372 12.5052C13.7975 12.5052 14.1706 12.8785 14.1706 13.3385C14.1706 13.7985 13.7975 14.1719 13.3372 14.1719C12.877 14.1719 12.5039 13.7985 12.5039 13.3385C12.5039 12.8785 12.877 12.5052 13.3372 12.5052Z"
        fill="#0045AC" />
</svg>