<svg width="20" height="20" viewBox="0 0 20 20" fill="none" xmlns="http://www.w3.org/2000/svg">
    <path
        d="M6.67057 1.67969C6.21032 1.67969 5.83724 2.05302 5.83724 2.51302C3.99549 2.51302 2.50391 4.00635 2.50391 5.84635V7.51302V14.1797C2.50391 16.0197 3.99632 17.513 5.83724 17.513H14.1706C16.0114 17.513 17.5039 16.0205 17.5039 14.1797V7.51302V5.84635C17.5039 4.00885 16.0106 2.51302 14.1706 2.51302C14.1706 2.05302 13.7972 1.67969 13.3372 1.67969C12.8772 1.67969 12.5039 2.05302 12.5039 2.51302H7.5039C7.5039 2.05302 7.13082 1.67969 6.67057 1.67969ZM5.83724 4.17969C5.83724 4.63969 6.21032 5.01302 6.67057 5.01302C7.13082 5.01302 7.5039 4.63969 7.5039 4.17969H12.5039C12.5039 4.63969 12.8772 5.01302 13.3372 5.01302C13.7972 5.01302 14.1706 4.63969 14.1706 4.17969C15.0881 4.17969 15.8372 4.92302 15.8372 5.84635V6.67969C14.2322 6.67969 5.77524 6.67969 4.17057 6.67969V5.84635C4.17057 4.92802 4.91424 4.17969 5.83724 4.17969ZM4.17057 8.34635C5.77432 8.34635 14.2331 8.34635 15.8372 8.34635V14.1797C15.8372 15.0989 15.0914 15.8464 14.1706 15.8464H5.83724C4.91674 15.8464 4.17057 15.1005 4.17057 14.1797V8.34635ZM6.67057 10.013C6.21032 10.013 5.83724 10.3864 5.83724 10.8464C5.83724 11.3064 6.21032 11.6797 6.67057 11.6797C7.13082 11.6797 7.5039 11.3064 7.5039 10.8464C7.5039 10.3864 7.13082 10.013 6.67057 10.013ZM10.0039 10.013C9.5439 10.013 9.17057 10.3864 9.17057 10.8464C9.17057 11.3064 9.5439 11.6797 10.0039 11.6797C10.4639 11.6797 10.8372 11.3064 10.8372 10.8464C10.8372 10.3864 10.4639 10.013 10.0039 10.013ZM13.3372 10.013C12.8772 10.013 12.5039 10.3864 12.5039 10.8464C12.5039 11.3064 12.8772 11.6797 13.3372 11.6797C13.7972 11.6797 14.1706 11.3064 14.1706 10.8464C14.1706 10.3864 13.7972 10.013 13.3372 10.013ZM6.67057 12.513C6.21032 12.513 5.83724 12.8864 5.83724 13.3464C5.83724 13.8064 6.21032 14.1797 6.67057 14.1797C7.13082 14.1797 7.5039 13.8064 7.5039 13.3464C7.5039 12.8864 7.13082 12.513 6.67057 12.513ZM10.0039 12.513C9.5439 12.513 9.17057 12.8864 9.17057 13.3464C9.17057 13.8064 9.5439 14.1797 10.0039 14.1797C10.4639 14.1797 10.8372 13.8064 10.8372 13.3464C10.8372 12.8864 10.4639 12.513 10.0039 12.513ZM13.3372 12.513C12.8772 12.513 12.5039 12.8864 12.5039 13.3464C12.5039 13.8064 12.8772 14.1797 13.3372 14.1797C13.7972 14.1797 14.1706 13.8064 14.1706 13.3464C14.1706 12.8864 13.7972 12.513 13.3372 12.513Z"
        fill="#131315" />
</svg>