<svg width="24" height="24" viewBox="0 0 24 24" fill="none" xmlns="http://www.w3.org/2000/svg">
    <path
        d="M18.5517 14.7475H5.44771C5.21971 14.7475 5.07471 14.5026 5.18471 14.3026L6.78371 11.4026C6.83671 11.3066 6.93671 11.2475 7.04671 11.2475H16.9527C17.0617 11.2475 17.1627 11.3066 17.2157 11.4026L18.8147 14.3026C18.9247 14.5026 18.7797 14.7475 18.5517 14.7475ZM13.6397 4.9675C12.9297 3.6775 11.0697 3.6775 10.3597 4.9675L7.95669 9.30258C7.84569 9.50258 7.99071 9.74753 8.21871 9.74753H15.7797C16.0087 9.74753 16.1527 9.50258 16.0417 9.30258L13.6397 4.9675ZM20.8197 17.9176L19.9857 16.4026C19.9327 16.3066 19.8327 16.2475 19.7227 16.2475H4.27773C4.16873 16.2475 4.06773 16.3066 4.01473 16.4026L3.17971 17.9176C2.65971 18.8476 3.32974 19.9975 4.39974 19.9975H19.5997C20.6697 19.9975 21.3397 18.8476 20.8197 17.9176Z"
        fill="#002E73" />
</svg>