<svg width="20" height="20" viewBox="0 0 20 20" fill="none" xmlns="http://www.w3.org/2000/svg">
    <path
        d="M5 2.49219C3.61925 2.49219 2.5 3.61135 2.5 4.99219V6.65885V14.1589C2.5 15.9997 3.99242 17.4922 5.83333 17.4922H14.1667C16.0076 17.4922 17.5 15.9997 17.5 14.1589V6.65885C17.5 6.19885 17.1269 5.82552 16.6667 5.82552C16.6667 5.82552 14.2477 5.82552 12.5 5.82552C11.8711 5.82552 11.6687 5.62135 11.1718 4.62718C10.4187 3.12135 9.78775 2.49219 8.33333 2.49219H5ZM5 4.15885H8.33333C8.96225 4.15885 9.16458 4.36302 9.6615 5.35719C9.77025 5.57469 9.81533 5.64385 9.92183 5.82552C7.05025 5.82552 4.9875 5.82552 4.16667 5.82552V4.99219C4.16667 4.53219 4.53975 4.15885 5 4.15885ZM8.33333 10.8255H11.6667C12.1269 10.8255 12.5 11.1989 12.5 11.6589C12.5 12.1189 12.1269 12.4922 11.6667 12.4922H8.33333C7.87308 12.4922 7.5 12.1189 7.5 11.6589C7.5 11.1989 7.87308 10.8255 8.33333 10.8255Z"
        fill="#0045AC" />
</svg>