<svg width="24" height="24" viewBox="0 0 24 24" fill="none" xmlns="http://www.w3.org/2000/svg">
    <path
        d="M4.01562 10.0078C2.91062 10.0078 2.01562 10.9028 2.01562 12.0078C2.01562 13.1128 2.91062 14.0078 4.01562 14.0078C5.12063 14.0078 6.01562 13.1128 6.01562 12.0078C6.01562 10.9028 5.12063 10.0078 4.01562 10.0078ZM12.0156 10.0078C10.9106 10.0078 10.0156 10.9028 10.0156 12.0078C10.0156 13.1128 10.9106 14.0078 12.0156 14.0078C13.1206 14.0078 14.0156 13.1128 14.0156 12.0078C14.0156 10.9028 13.1206 10.0078 12.0156 10.0078ZM20.0156 10.0078C18.9106 10.0078 18.0156 10.9028 18.0156 12.0078C18.0156 13.1128 18.9106 14.0078 20.0156 14.0078C21.1206 14.0078 22.0156 13.1128 22.0156 12.0078C22.0156 10.9028 21.1206 10.0078 20.0156 10.0078Z"
        fill="black" />
</svg>