<svg width="20" height="20" viewBox="0 0 20 20" fill="none" xmlns="http://www.w3.org/2000/svg">
    <path
        d="M5.6525 18.9137C5.6225 18.9137 5.5825 18.9338 5.5525 18.9338C3.6125 17.9738 2.0325 16.3838 1.0625 14.4438C1.0625 14.4138 1.0825 14.3737 1.0825 14.3438C2.3025 14.7038 3.5625 14.9738 4.8125 15.1838C5.0325 16.4438 5.2925 17.6937 5.6525 18.9137Z"
        fill="white" />
    <path
        d="M18.9391 14.4538C17.9491 16.4438 16.2991 18.0538 14.2891 19.0238C14.6691 17.7538 14.9891 16.4738 15.1991 15.1838C16.4591 14.9738 17.6991 14.7038 18.9191 14.3438C18.9091 14.3837 18.9391 14.4238 18.9391 14.4538Z"
        fill="white" />
    <path
        d="M19.0191 5.70656C17.7591 5.32656 16.4891 5.01656 15.1991 4.79656C14.9891 3.50656 14.6791 2.22656 14.2891 0.976562C16.3591 1.96656 18.0291 3.63656 19.0191 5.70656Z"
        fill="white" />
    <path
        d="M5.65047 1.0925C5.29047 2.3125 5.03047 3.5525 4.82047 4.8125C3.53047 5.0125 2.25047 5.3325 0.980469 5.7125C1.95047 3.7025 3.56047 2.0525 5.55047 1.0625C5.58047 1.0625 5.62047 1.0925 5.65047 1.0925Z"
        fill="white" />
    <path
        d="M13.4878 4.59C11.1678 4.33 8.82781 4.33 6.50781 4.59C6.75781 3.22 7.07781 1.85 7.52781 0.53C7.54781 0.45 7.53781 0.39 7.54781 0.31C8.33781 0.12 9.14781 0 9.99781 0C10.8378 0 11.6578 0.12 12.4378 0.31C12.4478 0.39 12.4478 0.45 12.4678 0.53C12.9178 1.86 13.2378 3.22 13.4878 4.59Z"
        fill="white" />
    <path
        d="M4.59 13.4878C3.21 13.2378 1.85 12.9178 0.53 12.4678C0.45 12.4478 0.39 12.4578 0.31 12.4478C0.12 11.6578 0 10.8478 0 9.99781C0 9.15781 0.12 8.33781 0.31 7.55781C0.39 7.54781 0.45 7.54781 0.53 7.52781C1.86 7.08781 3.21 6.75781 4.59 6.50781C4.34 8.82781 4.34 11.1678 4.59 13.4878Z"
        fill="white" />
    <path
        d="M20.0002 9.99781C20.0002 10.8478 19.8802 11.6578 19.6902 12.4478C19.6102 12.4578 19.5502 12.4478 19.4702 12.4678C18.1402 12.9078 16.7802 13.2378 15.4102 13.4878C15.6702 11.1678 15.6702 8.82781 15.4102 6.50781C16.7802 6.75781 18.1502 7.07781 19.4702 7.52781C19.5502 7.54781 19.6102 7.55781 19.6902 7.55781C19.8802 8.34781 20.0002 9.15781 20.0002 9.99781Z"
        fill="white" />
    <path
        d="M13.4878 15.4062C13.2378 16.7862 12.9178 18.1462 12.4678 19.4662C12.4478 19.5462 12.4478 19.6063 12.4378 19.6863C11.6578 19.8763 10.8378 19.9963 9.99781 19.9963C9.14781 19.9963 8.33781 19.8763 7.54781 19.6863C7.53781 19.6063 7.54781 19.5462 7.52781 19.4662C7.08781 18.1362 6.75781 16.7862 6.50781 15.4062C7.66781 15.5362 8.82781 15.6262 9.99781 15.6262C11.1678 15.6262 12.3378 15.5362 13.4878 15.4062Z"
        fill="white" />
    <path
        d="M13.7633 13.7633C11.2622 14.0789 8.73776 14.0789 6.23667 13.7633C5.92111 11.2622 5.92111 8.73776 6.23667 6.23667C8.73776 5.92111 11.2622 5.92111 13.7633 6.23667C14.0789 8.73776 14.0789 11.2622 13.7633 13.7633Z"
        fill="white" />
</svg>