<svg width="24" height="24" viewBox="0 0 24 24" fill="none" xmlns="http://www.w3.org/2000/svg">
    <path
        d="M21.9478 9.31719C21.9358 9.35419 21.2289 11.3744 19.3289 13.1844L20.8328 15.4473C21.1388 15.9073 21.0137 16.5283 20.5537 16.8343C20.3827 16.9473 20.1917 17.0013 20.0007 17.0013C19.6777 17.0013 19.3588 16.8442 19.1668 16.5552L17.7488 14.4212C17.0708 14.8492 16.2887 15.2133 15.4067 15.4903L15.9707 17.7613C16.1037 18.2973 15.7777 18.8402 15.2417 18.9732C15.1607 18.9932 15.0798 19.0022 14.9998 19.0022C14.5518 19.0022 14.1438 18.6982 14.0298 18.2432L13.4507 15.9144C12.9887 15.9694 12.5088 16.0022 11.9998 16.0022C11.4908 16.0022 11.0108 15.9694 10.5488 15.9144L9.96974 18.2432C9.85674 18.6982 9.44877 19.0022 8.99977 19.0022C8.91977 19.0022 8.83882 18.9932 8.75782 18.9732C8.22182 18.8402 7.89582 18.2973 8.02882 17.7613L8.59278 15.4903C7.71178 15.2143 6.92874 14.8492 6.25074 14.4212L4.83277 16.5552C4.64077 16.8452 4.32179 17.0013 3.99879 17.0013C3.80879 17.0013 3.61681 16.9473 3.44581 16.8343C2.98581 16.5283 2.86076 15.9073 3.16676 15.4473L4.67066 13.1844C2.77066 11.3744 2.06377 9.35419 2.05177 9.31719C1.87677 8.79319 2.15985 8.22729 2.68385 8.05229C3.21085 7.87629 3.77176 8.1592 3.94776 8.6812C3.99176 8.8112 4.6727 10.6973 6.5337 12.1873C6.5347 12.1883 6.53588 12.1892 6.53688 12.1902C7.77788 13.1822 9.53677 14.0013 11.9998 14.0013C14.4628 14.0013 16.2227 13.1832 17.4627 12.1902C17.4637 12.1892 17.4648 12.1883 17.4658 12.1873C19.3268 10.6973 20.0078 8.8112 20.0518 8.6812C20.2298 8.1592 20.8029 7.88122 21.3189 8.05522C21.8409 8.23122 22.1228 8.79419 21.9478 9.31719Z"
        fill="#C0C0C0" />
</svg>