<svg width="24" height="24" viewBox="0 0 24 24" fill="none" xmlns="http://www.w3.org/2000/svg">
    <path
        d="M21.2355 10.1379C19.9225 7.93894 16.9754 4.25 12.0004 4.25C7.02536 4.25 4.07825 7.93894 2.76525 10.1379C2.07825 11.2859 2.07825 12.7131 2.76525 13.8621C4.07825 16.0611 7.02536 19.75 12.0004 19.75C16.9754 19.75 19.9225 16.0611 21.2355 13.8621C21.9225 12.7131 21.9225 11.2869 21.2355 10.1379ZM19.9484 13.092C18.7984 15.018 16.2354 18.25 12.0004 18.25C7.76536 18.25 5.20236 15.019 4.05236 13.092C3.65036 12.418 3.65036 11.581 4.05236 10.907C5.20236 8.98098 7.76536 5.74902 12.0004 5.74902C16.2354 5.74902 18.7984 8.97998 19.9484 10.907C20.3514 11.582 20.3514 12.418 19.9484 13.092ZM12.0004 7.75C9.65636 7.75 7.75036 9.657 7.75036 12C7.75036 14.343 9.65636 16.25 12.0004 16.25C14.3444 16.25 16.2504 14.343 16.2504 12C16.2504 9.657 14.3444 7.75 12.0004 7.75ZM12.0004 14.75C10.4834 14.75 9.25036 13.517 9.25036 12C9.25036 10.483 10.4834 9.25 12.0004 9.25C13.5174 9.25 14.7504 10.483 14.7504 12C14.7504 13.517 13.5174 14.75 12.0004 14.75Z"
        fill="#C0C0C0" />
</svg>