<svg width="24" height="24" viewBox="0 0 24 24" fill="none" xmlns="http://www.w3.org/2000/svg">
    <path
        d="M22.448 7.60969L21.248 16.1907C21.091 17.2837 20.664 18.0598 19.991 18.5028C19.758 18.6228 19.5031 18.5019 19.5031 18.2589V9.66779C19.5031 7.05879 17.9451 5.5008 15.3361 5.5008C15.3361 5.5008 6.22395 5.5008 5.92395 5.5008C5.62395 5.5008 5.61694 5.23067 5.63794 5.11067C5.79594 4.16467 6.17 3.46466 6.75 3.02766C7.357 2.57066 8.17702 2.41176 9.19202 2.55476L19.7531 4.03474C20.7701 4.17874 21.518 4.55979 21.976 5.16779C22.433 5.77479 22.592 6.59669 22.448 7.60969ZM18.002 9.66682V18.3348C18.002 20.1128 17.113 21.0018 15.335 21.0018H4.66699C2.88899 21.0018 2 20.1128 2 18.3348V9.66682C2 7.88882 2.88899 6.99983 4.66699 6.99983H15.335C17.114 6.99983 18.002 7.88882 18.002 9.66682ZM13.25 14.0018C13.25 13.5878 12.914 13.2518 12.5 13.2518H10.75V11.5018C10.75 11.0878 10.414 10.7518 10 10.7518C9.586 10.7518 9.25 11.0878 9.25 11.5018V13.2518H7.5C7.086 13.2518 6.75 13.5878 6.75 14.0018C6.75 14.4158 7.086 14.7518 7.5 14.7518H9.25V16.5018C9.25 16.9158 9.586 17.2518 10 17.2518C10.414 17.2518 10.75 16.9158 10.75 16.5018V14.7518H12.5C12.914 14.7518 13.25 14.4158 13.25 14.0018Z"
        fill="white" />
</svg>