<svg width="16" height="16" viewBox="0 0 16 16" fill="none" xmlns="http://www.w3.org/2000/svg">
    <path
        d="M2.85956 8.47675C2.5989 8.21608 2.5989 7.79471 2.85956 7.53404L7.52623 2.86737C7.7869 2.60671 8.20827 2.60671 8.46894 2.86737L13.1356 7.53404C13.3963 7.79471 13.3963 8.21608 13.1356 8.47675C13.0056 8.60675 12.8349 8.67206 12.6642 8.67206C12.4936 8.67206 12.3229 8.60675 12.1929 8.47675L7.99758 4.28144L3.80227 8.47675C3.5416 8.73742 3.12023 8.73742 2.85956 8.47675ZM8.46894 7.53404C8.20827 7.27337 7.7869 7.27337 7.52623 7.53404L2.85956 12.2007C2.5989 12.4614 2.5989 12.8827 2.85956 13.1434C3.12023 13.4041 3.5416 13.4041 3.80227 13.1434L7.99758 8.9481L12.1929 13.1434C12.3229 13.2734 12.4936 13.3387 12.6642 13.3387C12.8349 13.3387 13.0056 13.2734 13.1356 13.1434C13.3963 12.8827 13.3963 12.4614 13.1356 12.2007L8.46894 7.53404Z"
        fill="#F20005" />
</svg>