<svg width="20" height="20" viewBox="0 0 20 20" fill="none" xmlns="http://www.w3.org/2000/svg">
    <path
        d="M11.668 15.832C11.668 16.4454 11.8171 17.027 12.0821 17.542C12.1696 17.7129 12.0604 17.9154 11.8688 17.9154H9.16797H5.83464C3.9263 17.9154 2.91797 16.9154 2.91797 15.0154C2.91797 12.8904 4.11797 10.4154 7.5013 10.4154H9.16797H10.8346C12.503 10.4154 13.6421 11.0187 14.3638 11.882C14.4763 12.017 14.3988 12.2162 14.2322 12.2712C12.738 12.7637 11.668 14.1687 11.668 15.832ZM9.1755 8.7487C11.0138 8.7487 12.5088 7.2537 12.5088 5.41536C12.5088 3.57703 11.0138 2.08203 9.1755 2.08203C7.33716 2.08203 5.84216 3.57703 5.84216 5.41536C5.84216 7.2537 7.33716 8.7487 9.1755 8.7487ZM17.5013 15.207H16.4596V14.1654C16.4596 13.8204 16.1796 13.5404 15.8346 13.5404C15.4896 13.5404 15.2096 13.8204 15.2096 14.1654V15.207H14.168C13.823 15.207 13.543 15.487 13.543 15.832C13.543 16.177 13.823 16.457 14.168 16.457H15.2096V17.4987C15.2096 17.8437 15.4896 18.1237 15.8346 18.1237C16.1796 18.1237 16.4596 17.8437 16.4596 17.4987V16.457H17.5013C17.8463 16.457 18.1263 16.177 18.1263 15.832C18.1263 15.487 17.8463 15.207 17.5013 15.207Z"
        fill="#C0C0C0" />
</svg>