<svg width="16" height="16" viewBox="0 0 16 16" fill="none" xmlns="http://www.w3.org/2000/svg">
    <path
        d="M13.1356 7.53404C13.3963 7.79471 13.3963 8.21608 13.1356 8.47675L8.46894 13.1434C8.33894 13.2734 8.16825 13.3387 7.99758 13.3387C7.82692 13.3387 7.65623 13.2734 7.52623 13.1434L2.85956 8.47675C2.5989 8.21608 2.5989 7.79471 2.85956 7.53404C3.12023 7.27338 3.5416 7.27338 3.80227 7.53404L7.99758 11.7294L12.1929 7.53404C12.4536 7.27338 12.8749 7.27338 13.1356 7.53404ZM7.52623 8.47675C7.65623 8.60675 7.82692 8.67206 7.99758 8.67206C8.16825 8.67206 8.33894 8.60675 8.46894 8.47675L13.1356 3.81008C13.3963 3.54942 13.3963 3.12804 13.1356 2.86738C12.8749 2.60671 12.4536 2.60671 12.1929 2.86738L7.99758 7.06269L3.80227 2.86738C3.5416 2.60671 3.12023 2.60671 2.85956 2.86738C2.5989 3.12804 2.5989 3.54942 2.85956 3.81008L7.52623 8.47675Z"
        fill="#005AF4" />
</svg>