<svg width="16" height="16" viewBox="0 0 16 16" fill="none" xmlns="http://www.w3.org/2000/svg">
    <path
        d="M1.9987 4.07031C1.6307 4.07031 1.33203 4.36898 1.33203 4.73698C1.33203 5.10498 1.6307 5.40365 1.9987 5.40365H11.332C11.7 5.40365 11.9987 5.10498 11.9987 4.73698C11.9987 4.36898 11.7 4.07031 11.332 4.07031H1.9987ZM3.33203 7.40365C2.96403 7.40365 2.66536 7.70231 2.66536 8.07031C2.66536 8.43831 2.96403 8.73698 3.33203 8.73698H12.6654C13.0334 8.73698 13.332 8.43831 13.332 8.07031C13.332 7.70231 13.0334 7.40365 12.6654 7.40365H3.33203ZM4.66536 10.737C4.29736 10.737 3.9987 11.0356 3.9987 11.4036C3.9987 11.7716 4.29736 12.0703 4.66536 12.0703H13.9987C14.3667 12.0703 14.6654 11.7716 14.6654 11.4036C14.6654 11.0356 14.3667 10.737 13.9987 10.737H4.66536Z"
        fill="#FFBB00" />
</svg>