<svg width="40" height="40" viewBox="0 0 40 40" fill="none" xmlns="http://www.w3.org/2000/svg">
    <rect width="40" height="40" rx="20" fill="#0045AC" />
    <path
        d="M25.666 10H14.333C12.111 10 11 11.111 11 13.333V23.333C11 25.555 12.111 26.666 14.333 26.666H15.833C16.358 26.666 16.852 26.913 17.166 27.333L18.666 29.333C19.333 30.222 20.666 30.222 21.333 29.333L22.833 27.333C23.148 26.913 23.642 26.666 24.166 26.666H25.666C27.888 26.666 28.999 25.555 28.999 23.333V13.333C28.999 11.111 27.888 10 25.666 10ZM19.999 13C21.239 13 22.249 14.009 22.249 15.25C22.249 16.491 21.239 17.5 19.999 17.5C18.759 17.5 17.749 16.491 17.749 15.25C17.749 14.009 18.759 13 19.999 13ZM21.993 24H17.996C16.724 24 15.994 23.274 15.994 22.009C15.994 20.621 16.78 19 18.994 19H20.994C23.208 19 23.994 20.621 23.994 22.009C23.994 23.274 23.265 24 21.993 24Z"
        fill="white" />
</svg>