<svg width="24" height="24" viewBox="0 0 24 24" fill="none" xmlns="http://www.w3.org/2000/svg">
    <path
        d="M12.0015 3C7.03149 3 3.00246 7.02902 3.00246 11.999C3.00246 13.339 3.30254 14.619 3.83254 15.758C4.04254 16.198 4.0426 16.708 3.8926 17.178L3.05251 19.678C2.79251 20.458 3.54253 21.208 4.32253 20.948L6.82253 20.108C7.29253 19.958 7.80245 19.958 8.24245 20.168C9.38245 20.698 10.6625 20.998 12.0025 20.998C16.9725 20.998 21.0015 16.969 21.0015 11.999C21.0005 7.02902 16.9715 3 12.0015 3ZM16.5305 10.93L14.2954 13.165C13.6914 13.769 12.7095 13.769 12.1065 13.166L10.8355 11.897L8.53152 14.129C8.38552 14.275 8.19349 14.349 8.00149 14.349C7.80949 14.349 7.61746 14.276 7.47146 14.129C7.17846 13.836 7.17846 13.361 7.47146 13.068L9.70339 10.836C10.3064 10.233 11.2896 10.232 11.8936 10.835L13.1646 12.104L15.4705 9.86902C15.7635 9.57602 16.2385 9.57602 16.5315 9.86902C16.8245 10.162 16.8235 10.637 16.5305 10.93Z"
        fill="white" />
</svg>