<svg width="42" height="40" viewBox="0 0 42 40" fill="none" xmlns="http://www.w3.org/2000/svg">
    <path
        d="M0 20C0 8.95431 8.9543 0 20 0H21.999C33.0447 0 41.999 8.95431 41.999 20C41.999 31.0457 33.0447 40 21.999 40H20C8.9543 40 0 31.0457 0 20Z"
        fill="#DA100B" />
    <path
        d="M29.083 27.7861C29.3127 27.7864 29.4988 27.9724 29.499 28.2021V29.583C29.4988 29.8128 29.3128 29.9997 29.083 30H28.6279C28.3979 30 28.2111 29.813 28.2109 29.583V29.3096C28.2107 29.0798 28.0247 28.8938 27.7949 28.8936H26.0596C25.8296 28.8936 25.6428 29.0796 25.6426 29.3096V29.583C25.6424 29.8128 25.4563 29.9997 25.2266 30H24.7793C24.5493 30 24.3625 29.813 24.3623 29.583V28.2021C24.3625 27.9722 24.5493 27.7861 24.7793 27.7861H29.083ZM13.8809 21.667C15.519 21.6673 16.925 22.6979 17.5303 24.1689C17.5987 24.335 17.756 24.452 17.9355 24.4521H31.1631C31.3931 24.4523 31.5801 24.6391 31.5801 24.8691V26.7021C31.5799 26.932 31.393 27.119 31.1631 27.1191H17.9355C17.756 27.1193 17.5987 27.2354 17.5303 27.4014C16.9251 28.8726 15.519 29.905 13.8809 29.9053C11.6902 29.905 9.91455 28.0606 9.91406 25.7861C9.91406 23.5112 11.6899 21.6673 13.8809 21.667ZM13.8799 24.0205C12.9408 24.0205 12.1797 24.8111 12.1797 25.7861C12.1802 26.7607 12.9411 27.5508 13.8799 27.5508C14.8183 27.5504 15.5795 26.7604 15.5801 25.7861C15.5801 24.8114 14.8186 24.0209 13.8799 24.0205ZM18.9385 17.5195L19.8184 19.1094C20.1355 19.6823 20.9592 19.6823 21.2764 19.1094L22.1572 17.5195C25.6019 17.6125 26.582 19.1806 26.582 23.333H18.5361C17.9483 21.8263 16.9641 20.9309 14.916 20.4268C16.0829 18.0402 17.1281 17.3703 18.9385 17.5195ZM20.748 10C22.5861 10.0002 24.0809 11.495 24.0811 13.333C24.0811 15.1712 22.5862 16.6668 20.748 16.667C18.9098 16.6669 17.415 15.1713 17.415 13.333C17.4152 11.4949 18.9099 10.0001 20.748 10Z"
        fill="white" />
</svg>