<svg width="20" height="20" viewBox="0 0 20 20" fill="none" xmlns="http://www.w3.org/2000/svg">
    <path
        d="M8.13802 1.84938C4.38052 2.7103 1.67969 6.06896 1.67969 9.97438C1.67969 10.5811 1.76969 11.3191 1.91386 11.9535C2.03636 12.4898 2.62718 12.7598 3.11218 12.5004C3.45052 12.3195 4.41301 11.8334 5.79468 11.1462C5.81301 11.1368 8.66634 9.71005 8.71134 9.68788C8.99551 9.54738 9.17969 9.25046 9.17969 8.93271C9.17969 8.88021 9.15968 3.20205 9.15385 2.65671C9.14802 2.12488 8.65635 1.73063 8.13802 1.84938ZM11.888 1.84938C11.3705 1.73046 10.8797 2.12563 10.8722 2.65671C10.8647 3.24521 10.8464 8.09313 10.8464 8.9848C10.8497 9.31546 10.8813 9.50013 11.3413 9.74005C11.3997 9.77296 14.0213 11.036 14.5705 11.3025C14.6855 11.3585 16.3897 12.2295 16.888 12.5004C17.3722 12.7637 17.9888 12.491 18.1122 11.9535C18.2589 11.315 18.3464 10.5885 18.3464 9.97438C18.3464 6.07063 15.6439 2.71196 11.888 1.84938ZM9.64803 11.0942C9.60303 11.1165 3.86136 13.9434 3.78886 13.9848C3.34219 14.2402 3.22969 14.8358 3.55469 15.2348C5.12719 17.1661 7.47385 18.3077 10.013 18.3077C12.5605 18.3077 14.9255 17.1511 16.4972 15.2087C16.8272 14.8015 16.6997 14.2048 16.2372 13.9587C16.1247 13.899 10.423 11.1165 10.378 11.0942C10.1463 10.9811 9.8797 10.9803 9.64803 11.0942Z"
        fill="#0045AC" />
</svg>