<svg width="16" height="16" viewBox="0 0 16 16" fill="none" xmlns="http://www.w3.org/2000/svg">
    <path
        d="M10.0088 1.30078C9.83197 1.30078 9.65017 1.39311 9.5225 1.51531C8.4901 2.50385 8.17397 3.33052 8.55144 4.46292C7.6707 5.13798 7.11444 5.30365 6.01497 5.30365C4.51197 5.30365 3.53064 5.48485 2.8629 6.15212V6.17291C2.2381 6.79745 2.2381 7.79745 2.8629 8.42145L4.7297 10.3028L1.54897 13.4821C1.28864 13.7421 1.26924 14.1788 1.52957 14.4388C1.78997 14.6995 2.22757 14.6995 2.48797 14.4388L5.6805 11.2455L7.55044 13.1061C8.1753 13.7308 9.17557 13.7308 9.80044 13.1061H9.8213C10.4893 12.4388 10.6754 11.5835 10.6754 9.96212C10.6754 8.93145 10.887 8.20412 11.5274 7.43878C12.76 7.80012 13.4772 7.45412 14.488 6.44365C14.613 6.31865 14.6754 6.14145 14.6754 5.96472C14.6754 5.73025 14.6162 5.37085 14.4671 4.92365C14.2269 4.20358 13.8134 3.47912 13.1546 2.82072C12.4958 2.16238 11.7709 1.74905 11.0504 1.50898C10.603 1.35992 10.2434 1.30078 10.0088 1.30078ZM10.267 2.67052C10.9752 2.80198 11.6884 3.27085 12.1962 3.77851C12.7042 4.28611 13.1368 4.90785 13.3158 5.72271C12.6794 6.33311 12.2902 6.38138 11.6538 6.04638C11.4 5.91272 11.0783 5.95998 10.8754 6.16278C9.66144 7.37612 9.3421 8.47678 9.3421 9.96212C9.3421 11.2555 9.26604 11.7361 8.86291 12.1695C8.7491 12.2921 8.5921 12.2735 8.48797 12.1695L3.80044 7.48479C3.6963 7.38078 3.6995 7.24745 3.78344 7.14545C4.02157 6.85545 4.55157 6.63018 6.00877 6.63098C7.75077 6.63198 8.67684 6.18338 9.8213 5.11105C10.0242 4.90825 10.0746 4.59718 9.94624 4.34065C9.60344 3.65538 9.65691 3.29418 10.267 2.67052Z"
        fill="#131315" />
</svg>