<svg width="32" height="32" viewBox="0 0 32 32" fill="none" xmlns="http://www.w3.org/2000/svg">
    <path
        d="M16.0169 2.60156C8.65319 2.60156 2.68359 8.57089 2.68359 15.9349C2.68359 23.2989 8.65319 29.2682 16.0169 29.2682C23.3807 29.2682 29.3503 23.2989 29.3503 15.9349C29.3503 8.57089 23.3807 2.60156 16.0169 2.60156ZM16.0169 9.26822C16.7533 9.26822 17.3503 9.86556 17.3503 10.6016V14.6016H21.3503C22.0867 14.6016 22.6836 15.1989 22.6836 15.9349C22.6836 16.6709 22.0867 17.2682 21.3503 17.2682H17.3503V21.2682C17.3503 22.0042 16.7533 22.6015 16.0169 22.6015C15.2805 22.6015 14.6836 22.0042 14.6836 21.2682V17.2682H10.6836C9.9472 17.2682 9.35026 16.6709 9.35026 15.9349C9.35026 15.1989 9.9472 14.6016 10.6836 14.6016H14.6836V10.6016C14.6836 9.86556 15.2805 9.26822 16.0169 9.26822Z"
        fill="white" />
</svg>