<svg width="20" height="20" viewBox="0 0 20 20" fill="none" xmlns="http://www.w3.org/2000/svg">
    <path
        d="M5.83333 2.44531C3.9925 2.44531 2.5 3.93781 2.5 5.77865V14.112C2.5 15.9528 3.9925 17.4453 5.83333 17.4453H14.1667C16.0075 17.4453 17.5 15.9528 17.5 14.112V5.77865C17.5 3.93781 16.0075 2.44531 14.1667 2.44531H5.83333ZM6.66667 5.77865C7.12667 5.77865 7.5 6.15198 7.5 6.61198C7.5 7.07198 7.12667 7.44531 6.66667 7.44531C6.20667 7.44531 5.83333 7.07198 5.83333 6.61198C5.83333 6.15198 6.20667 5.77865 6.66667 5.77865ZM9.16667 5.77865H13.3333C13.7933 5.77865 14.1667 6.15198 14.1667 6.61198C14.1667 7.07198 13.7933 7.44531 13.3333 7.44531H9.16667C8.70667 7.44531 8.33333 7.07198 8.33333 6.61198C8.33333 6.15198 8.70667 5.77865 9.16667 5.77865ZM6.66667 9.11198C7.12667 9.11198 7.5 9.48531 7.5 9.94531C7.5 10.4053 7.12667 10.7786 6.66667 10.7786C6.20667 10.7786 5.83333 10.4053 5.83333 9.94531C5.83333 9.48531 6.20667 9.11198 6.66667 9.11198ZM9.16667 9.11198H13.3333C13.7933 9.11198 14.1667 9.48531 14.1667 9.94531C14.1667 10.4053 13.7933 10.7786 13.3333 10.7786H9.16667C8.70667 10.7786 8.33333 10.4053 8.33333 9.94531C8.33333 9.48531 8.70667 9.11198 9.16667 9.11198ZM6.66667 12.4453C7.12667 12.4453 7.5 12.8186 7.5 13.2786C7.5 13.7386 7.12667 14.112 6.66667 14.112C6.20667 14.112 5.83333 13.7386 5.83333 13.2786C5.83333 12.8186 6.20667 12.4453 6.66667 12.4453ZM9.16667 12.4453H13.3333C13.7933 12.4453 14.1667 12.8186 14.1667 13.2786C14.1667 13.7386 13.7933 14.112 13.3333 14.112H9.16667C8.70667 14.112 8.33333 13.7386 8.33333 13.2786C8.33333 12.8186 8.70667 12.4453 9.16667 12.4453Z"
        fill="#0045AC" />
</svg>