<svg width="20" height="20" viewBox="0 0 20 20" fill="none" xmlns="http://www.w3.org/2000/svg">
    <path
        d="M9.99707 2.01855C14.393 2.01855 17.9764 5.60115 17.9766 9.99707C17.9766 14.3931 14.3931 17.9766 9.99707 17.9766C5.60115 17.9764 2.01855 14.393 2.01855 9.99707C2.01873 5.60126 5.60126 2.01873 9.99707 2.01855ZM14.2314 6.94727C13.8515 6.56729 13.2267 6.56729 12.8467 6.94727L8.81348 10.9795L7.14746 9.31348C6.76749 8.93379 6.14357 8.93368 5.76367 9.31348C5.38369 9.69345 5.3837 10.3183 5.76367 10.6982L8.12207 13.0566C8.30437 13.2388 8.55293 13.3428 8.81445 13.3428C9.07579 13.3427 9.32366 13.2386 9.50586 13.0566L14.2354 8.32715C14.6073 7.94235 14.6134 7.32956 14.2314 6.94727Z"
        fill="#005AF4" stroke="#005AF4" stroke-width="0.708333" />
</svg>