<svg width="161" height="29" viewBox="0 0 161 29" fill="none" xmlns="http://www.w3.org/2000/svg">
    <mask id="path-1-outside-1_2924_32984" maskUnits="userSpaceOnUse" x="0" y="0" width="161" height="29" fill="black">
        <rect fill="white" width="161" height="29" />
        <path
            d="M147 1C150.314 1 153 3.68629 153 7C153 8.72287 153.919 10.3149 155.411 11.1764L158.801 13.1338C159.467 13.5187 159.467 14.4813 158.801 14.8662L156.278 16.3225C154.25 17.4935 153 19.6578 153 22C153 25.3137 150.314 28 147 28H7C3.68629 28 1 25.3137 1 22V7C1 3.68629 3.68629 1 7 1H147Z" />
    </mask>
    <path
        d="M147 1C150.314 1 153 3.68629 153 7C153 8.72287 153.919 10.3149 155.411 11.1764L158.801 13.1338C159.467 13.5187 159.467 14.4813 158.801 14.8662L156.278 16.3225C154.25 17.4935 153 19.6578 153 22C153 25.3137 150.314 28 147 28H7C3.68629 28 1 25.3137 1 22V7C1 3.68629 3.68629 1 7 1H147Z"
        fill="white" />
    <path
        d="M147 1V0V1ZM153 7H154H153ZM158.801 13.1338L158.301 13.9998L158.301 13.9998L158.801 13.1338ZM158.801 14.8662L159.301 15.7323L159.301 15.7322L158.801 14.8662ZM7 28L7 29H7V28ZM1 22H0H1ZM156.278 16.3225L156.778 17.1885L156.278 16.3225ZM155.411 11.1764L155.911 10.3104L155.411 11.1764ZM147 1V2C149.761 2 152 4.23858 152 7H153H154C154 3.13401 150.866 2.68221e-06 147 0V1ZM155.411 11.1764L154.911 12.0424L158.301 13.9998L158.801 13.1338L159.301 12.2678L155.911 10.3104L155.411 11.1764ZM158.801 13.1338L158.301 13.9998V14.0002L158.801 14.8662L159.301 15.7322C160.634 14.9624 160.634 13.0376 159.301 12.2678L158.801 13.1338ZM158.801 14.8662L158.301 14.0002L155.778 15.4564L156.278 16.3225L156.778 17.1885L159.301 15.7323L158.801 14.8662ZM153 22H152C152 24.7614 149.761 27 147 27V28V29C150.866 29 154 25.866 154 22H153ZM147 28V27H7V28V29H147V28ZM7 28L7 27C4.23858 27 2 24.7614 2 22H1H0C0 25.866 3.13401 29 7 29L7 28ZM1 22H2V7H1H0V22H1ZM1 7H2C2 4.23858 4.23858 2 7 2V1V0C3.13401 0 0 3.13401 0 7H1ZM7 1V2H147V1V0H7V1ZM156.278 16.3225L155.778 15.4564C153.44 16.806 152 19.3005 152 22H153H154C154 20.015 155.059 18.1809 156.778 17.1885L156.278 16.3225ZM153 7H152C152 9.08012 153.11 11.0022 154.911 12.0424L155.411 11.1764L155.911 10.3104C154.729 9.62755 154 8.36563 154 7H153Z"
        fill="#BDD9FF" mask="url(#path-1-outside-1_2924_32984)" />
</svg>