<svg width="30" height="32" viewBox="0 0 30 32" fill="none" xmlns="http://www.w3.org/2000/svg">
    <path
        d="M27.8186 6.92071C28.7563 7.44691 29.3336 8.41633 29.3336 9.46508V22.5352C29.3336 23.584 28.7563 24.5534 27.8185 25.0796L16.1922 31.603C15.2488 32.1323 14.0847 32.1323 13.1413 31.603L1.51503 25.0796C0.577238 24.5534 0 23.584 0 22.5352V9.46508C0 8.41633 0.577216 7.4469 1.51498 6.92071L13.1413 0.397014C14.0847 -0.132338 15.2489 -0.132338 16.1923 0.397015L27.8186 6.92071Z"
        fill="#FF9C02" />
    <path
        d="M29.3301 16.165V22.5391C29.3301 23.5878 28.7522 24.5578 27.8145 25.084L18.6416 30.2295L7.80469 23.9121L19.7871 8.72656L29.3301 16.165Z"
        fill="#CD7B03" />
    <path
        d="M17.0089 7.81544C14.5544 7.78348 11.6764 7.79909 9.73434 7.81544C8.97441 7.82184 8.50161 8.42915 8.45156 9.2699L7.20697 22.4937C7.0761 23.5735 7.59846 24.1005 8.97003 24.1428C10.3416 24.1851 11.1946 24.207 16.5055 24.1428C21.8164 24.0785 24.5655 18.0234 19.3758 15.4518C23.4187 12.6587 21.1151 7.86891 17.0089 7.81544Z"
        fill="white" />
    <path
        d="M15.4502 10.6844L10.5798 16.2752C10.3617 16.5256 10.5246 16.916 10.857 16.9395L13.6224 17.1345L12.4051 20.4378C12.2492 20.861 12.8044 21.1797 13.0953 20.8341L17.6783 15.3886C17.8363 15.2008 17.7152 14.914 17.4697 14.8945L14.5777 14.6654L15.9637 10.9875C16.0824 10.6726 15.6717 10.4301 15.4502 10.6844Z"
        fill="#FF9C02" />
</svg>